<mxfile host="app.diagrams.net" modified="2023-11-15T06:12:03.085Z" agent="Mozilla/5.0 (Windows NT 10.0; Win64; x64) AppleWebKit/537.36 (KHTML, like Gecko) Chrome/119.0.0.0 Safari/537.36 Edg/119.0.0.0" etag="ug0-omiN7hecHynTBvRr" version="22.1.0" type="device">
  <diagram name="E-Learning" id="OIANr_8b8tr41d54KV40">
    <mxGraphModel dx="655" dy="383" grid="1" gridSize="10" guides="1" tooltips="1" connect="1" arrows="1" fold="1" page="1" pageScale="1" pageWidth="1100" pageHeight="850" math="0" shadow="0">
      <root>
        <mxCell id="0" />
        <mxCell id="1" parent="0" />
        <mxCell id="zx_b4zI5u3n16hg_3vCS-3" value="" style="rounded=0;whiteSpace=wrap;html=1;" vertex="1" parent="1">
          <mxGeometry x="95" y="345" width="325" height="385" as="geometry" />
        </mxCell>
        <mxCell id="zx_b4zI5u3n16hg_3vCS-1" value="" style="rounded=0;whiteSpace=wrap;html=1;" vertex="1" parent="1">
          <mxGeometry x="535" y="412" width="385" height="200" as="geometry" />
        </mxCell>
        <mxCell id="I34lqknRAjShdTsjLINw-1" value="" style="rounded=0;whiteSpace=wrap;html=1;" parent="1" vertex="1">
          <mxGeometry x="529.78" y="127" width="480" height="230" as="geometry" />
        </mxCell>
        <mxCell id="QHEEn6cuKo9EkzluKdim-1" value="" style="rounded=0;whiteSpace=wrap;html=1;" parent="1" vertex="1">
          <mxGeometry x="110" y="112" width="370" height="200" as="geometry" />
        </mxCell>
        <mxCell id="Su-YMEVekgUXVJTX0emV-1" value="Employee" style="shape=ext;margin=3;double=1;whiteSpace=wrap;html=1;align=center;" parent="1" vertex="1">
          <mxGeometry x="722.13" y="207" width="100" height="40" as="geometry" />
        </mxCell>
        <mxCell id="Su-YMEVekgUXVJTX0emV-2" value="Trainer" style="whiteSpace=wrap;html=1;align=center;" parent="1" vertex="1">
          <mxGeometry x="602.13" y="307" width="100" height="40" as="geometry" />
        </mxCell>
        <mxCell id="Su-YMEVekgUXVJTX0emV-3" value="Learner" style="whiteSpace=wrap;html=1;align=center;" parent="1" vertex="1">
          <mxGeometry x="832.13" y="307" width="100" height="40" as="geometry" />
        </mxCell>
        <mxCell id="Su-YMEVekgUXVJTX0emV-4" value="&lt;b&gt;&lt;u&gt;Id&lt;/u&gt;&lt;/b&gt;" style="ellipse;whiteSpace=wrap;html=1;align=center;" parent="1" vertex="1">
          <mxGeometry x="702.13" y="137" width="70" height="40" as="geometry" />
        </mxCell>
        <mxCell id="Su-YMEVekgUXVJTX0emV-5" value="Name" style="ellipse;whiteSpace=wrap;html=1;align=center;" parent="1" vertex="1">
          <mxGeometry x="782.13" y="137" width="70" height="40" as="geometry" />
        </mxCell>
        <mxCell id="Su-YMEVekgUXVJTX0emV-6" value="&lt;b&gt;Employee ID&lt;/b&gt;" style="ellipse;whiteSpace=wrap;html=1;align=center;" parent="1" vertex="1">
          <mxGeometry x="852.13" y="167" width="70" height="40" as="geometry" />
        </mxCell>
        <mxCell id="Su-YMEVekgUXVJTX0emV-12" value="" style="endArrow=none;html=1;rounded=0;exitX=0.5;exitY=1;exitDx=0;exitDy=0;entryX=0.25;entryY=0;entryDx=0;entryDy=0;" parent="1" source="Su-YMEVekgUXVJTX0emV-4" target="Su-YMEVekgUXVJTX0emV-1" edge="1">
          <mxGeometry relative="1" as="geometry">
            <mxPoint x="687.13" y="191" as="sourcePoint" />
            <mxPoint x="732.13" y="217" as="targetPoint" />
          </mxGeometry>
        </mxCell>
        <mxCell id="Su-YMEVekgUXVJTX0emV-13" value="" style="endArrow=none;html=1;rounded=0;exitX=0;exitY=1;exitDx=0;exitDy=0;entryX=0.5;entryY=0;entryDx=0;entryDy=0;" parent="1" source="Su-YMEVekgUXVJTX0emV-5" target="Su-YMEVekgUXVJTX0emV-1" edge="1">
          <mxGeometry relative="1" as="geometry">
            <mxPoint x="747.13" y="187" as="sourcePoint" />
            <mxPoint x="757.13" y="217" as="targetPoint" />
          </mxGeometry>
        </mxCell>
        <mxCell id="Su-YMEVekgUXVJTX0emV-14" value="" style="endArrow=none;html=1;rounded=0;exitX=0;exitY=0.5;exitDx=0;exitDy=0;entryX=0.75;entryY=0;entryDx=0;entryDy=0;" parent="1" source="Su-YMEVekgUXVJTX0emV-6" target="Su-YMEVekgUXVJTX0emV-1" edge="1">
          <mxGeometry relative="1" as="geometry">
            <mxPoint x="802.13" y="181" as="sourcePoint" />
            <mxPoint x="782.13" y="217" as="targetPoint" />
          </mxGeometry>
        </mxCell>
        <mxCell id="Su-YMEVekgUXVJTX0emV-15" value="Extends" style="endArrow=block;endSize=16;endFill=0;html=1;rounded=0;exitX=0.25;exitY=1;exitDx=0;exitDy=0;entryX=0.75;entryY=0;entryDx=0;entryDy=0;" parent="1" source="Su-YMEVekgUXVJTX0emV-1" target="Su-YMEVekgUXVJTX0emV-2" edge="1">
          <mxGeometry width="160" relative="1" as="geometry">
            <mxPoint x="747.13" y="277" as="sourcePoint" />
            <mxPoint x="852.13" y="307" as="targetPoint" />
          </mxGeometry>
        </mxCell>
        <mxCell id="Su-YMEVekgUXVJTX0emV-16" value="Extends" style="endArrow=block;endSize=16;endFill=0;html=1;rounded=0;exitX=0.75;exitY=1;exitDx=0;exitDy=0;entryX=0.25;entryY=0;entryDx=0;entryDy=0;" parent="1" source="Su-YMEVekgUXVJTX0emV-1" target="Su-YMEVekgUXVJTX0emV-3" edge="1">
          <mxGeometry width="160" relative="1" as="geometry">
            <mxPoint x="757.13" y="257" as="sourcePoint" />
            <mxPoint x="687.13" y="317" as="targetPoint" />
          </mxGeometry>
        </mxCell>
        <mxCell id="Su-YMEVekgUXVJTX0emV-18" value="Domain" style="ellipse;whiteSpace=wrap;html=1;align=center;" parent="1" vertex="1">
          <mxGeometry x="562.13" y="247" width="70" height="40" as="geometry" />
        </mxCell>
        <mxCell id="Su-YMEVekgUXVJTX0emV-20" value="" style="endArrow=none;html=1;rounded=0;exitX=1;exitY=1;exitDx=0;exitDy=0;entryX=0.25;entryY=0;entryDx=0;entryDy=0;" parent="1" source="Su-YMEVekgUXVJTX0emV-18" target="Su-YMEVekgUXVJTX0emV-2" edge="1">
          <mxGeometry relative="1" as="geometry">
            <mxPoint x="592.13" y="297" as="sourcePoint" />
            <mxPoint x="612.13" y="317" as="targetPoint" />
          </mxGeometry>
        </mxCell>
        <mxCell id="Su-YMEVekgUXVJTX0emV-22" value="User ID" style="ellipse;whiteSpace=wrap;html=1;align=center;dashed=1;" parent="1" vertex="1">
          <mxGeometry x="847.13" y="217" width="70" height="40" as="geometry" />
        </mxCell>
        <mxCell id="Su-YMEVekgUXVJTX0emV-23" value="" style="endArrow=none;html=1;rounded=0;exitX=0;exitY=0;exitDx=0;exitDy=0;entryX=1;entryY=0.25;entryDx=0;entryDy=0;" parent="1" source="Su-YMEVekgUXVJTX0emV-22" target="Su-YMEVekgUXVJTX0emV-1" edge="1">
          <mxGeometry relative="1" as="geometry">
            <mxPoint x="862.13" y="197" as="sourcePoint" />
            <mxPoint x="807.13" y="217" as="targetPoint" />
          </mxGeometry>
        </mxCell>
        <mxCell id="Su-YMEVekgUXVJTX0emV-24" value="User" style="whiteSpace=wrap;html=1;align=center;" parent="1" vertex="1">
          <mxGeometry x="230" y="222" width="100" height="40" as="geometry" />
        </mxCell>
        <mxCell id="Su-YMEVekgUXVJTX0emV-25" value="&lt;b&gt;&lt;u&gt;Id&lt;/u&gt;&lt;/b&gt;" style="ellipse;whiteSpace=wrap;html=1;align=center;" parent="1" vertex="1">
          <mxGeometry x="170" y="132" width="70" height="40" as="geometry" />
        </mxCell>
        <mxCell id="Su-YMEVekgUXVJTX0emV-26" value="&lt;b&gt;Email&lt;/b&gt;" style="ellipse;whiteSpace=wrap;html=1;align=center;" parent="1" vertex="1">
          <mxGeometry x="250" y="142" width="70" height="40" as="geometry" />
        </mxCell>
        <mxCell id="Su-YMEVekgUXVJTX0emV-27" value="Password" style="ellipse;whiteSpace=wrap;html=1;align=center;" parent="1" vertex="1">
          <mxGeometry x="330" y="162" width="70" height="40" as="geometry" />
        </mxCell>
        <mxCell id="Su-YMEVekgUXVJTX0emV-29" value="Role" style="ellipse;whiteSpace=wrap;html=1;align=center;" parent="1" vertex="1">
          <mxGeometry x="130" y="222" width="70" height="40" as="geometry" />
        </mxCell>
        <mxCell id="Su-YMEVekgUXVJTX0emV-30" value="" style="endArrow=none;html=1;rounded=0;exitX=1;exitY=0.5;exitDx=0;exitDy=0;entryX=0;entryY=0.5;entryDx=0;entryDy=0;" parent="1" source="Su-YMEVekgUXVJTX0emV-29" target="Su-YMEVekgUXVJTX0emV-24" edge="1">
          <mxGeometry relative="1" as="geometry">
            <mxPoint x="475" y="292" as="sourcePoint" />
            <mxPoint x="485" y="322" as="targetPoint" />
          </mxGeometry>
        </mxCell>
        <mxCell id="Su-YMEVekgUXVJTX0emV-32" value="" style="endArrow=none;html=1;rounded=0;exitX=0.5;exitY=1;exitDx=0;exitDy=0;entryX=0.25;entryY=0;entryDx=0;entryDy=0;" parent="1" source="Su-YMEVekgUXVJTX0emV-25" target="Su-YMEVekgUXVJTX0emV-24" edge="1">
          <mxGeometry relative="1" as="geometry">
            <mxPoint x="190" y="202" as="sourcePoint" />
            <mxPoint x="240" y="242" as="targetPoint" />
          </mxGeometry>
        </mxCell>
        <mxCell id="Su-YMEVekgUXVJTX0emV-33" value="" style="endArrow=none;html=1;rounded=0;exitX=0;exitY=1;exitDx=0;exitDy=0;entryX=0.5;entryY=0;entryDx=0;entryDy=0;" parent="1" source="Su-YMEVekgUXVJTX0emV-26" target="Su-YMEVekgUXVJTX0emV-24" edge="1">
          <mxGeometry relative="1" as="geometry">
            <mxPoint x="215" y="182" as="sourcePoint" />
            <mxPoint x="265" y="232" as="targetPoint" />
          </mxGeometry>
        </mxCell>
        <mxCell id="Su-YMEVekgUXVJTX0emV-34" value="" style="endArrow=none;html=1;rounded=0;exitX=0;exitY=0.5;exitDx=0;exitDy=0;entryX=0.75;entryY=0;entryDx=0;entryDy=0;" parent="1" source="Su-YMEVekgUXVJTX0emV-27" target="Su-YMEVekgUXVJTX0emV-24" edge="1">
          <mxGeometry relative="1" as="geometry">
            <mxPoint x="270" y="186" as="sourcePoint" />
            <mxPoint x="290" y="232" as="targetPoint" />
          </mxGeometry>
        </mxCell>
        <mxCell id="Su-YMEVekgUXVJTX0emV-35" value="" style="edgeStyle=entityRelationEdgeStyle;fontSize=12;html=1;endArrow=ERmandOne;startArrow=ERmandOne;rounded=0;entryX=0;entryY=0.5;entryDx=0;entryDy=0;exitX=1;exitY=0.5;exitDx=0;exitDy=0;" parent="1" source="Su-YMEVekgUXVJTX0emV-24" target="Su-YMEVekgUXVJTX0emV-1" edge="1">
          <mxGeometry width="100" height="100" relative="1" as="geometry">
            <mxPoint x="420" y="292" as="sourcePoint" />
            <mxPoint x="520" y="192" as="targetPoint" />
          </mxGeometry>
        </mxCell>
        <mxCell id="Su-YMEVekgUXVJTX0emV-39" value="User Credential" style="edgeLabel;html=1;align=center;verticalAlign=middle;resizable=0;points=[];" parent="Su-YMEVekgUXVJTX0emV-35" vertex="1" connectable="0">
          <mxGeometry x="-0.0612" y="3" relative="1" as="geometry">
            <mxPoint as="offset" />
          </mxGeometry>
        </mxCell>
        <mxCell id="Su-YMEVekgUXVJTX0emV-37" value="Batches" style="ellipse;shape=doubleEllipse;margin=3;whiteSpace=wrap;html=1;align=center;" parent="1" vertex="1">
          <mxGeometry x="917.13" y="257" width="75" height="40" as="geometry" />
        </mxCell>
        <mxCell id="Su-YMEVekgUXVJTX0emV-38" value="" style="endArrow=none;html=1;rounded=0;exitX=0.5;exitY=1;exitDx=0;exitDy=0;entryX=1;entryY=0.5;entryDx=0;entryDy=0;" parent="1" source="Su-YMEVekgUXVJTX0emV-37" target="Su-YMEVekgUXVJTX0emV-3" edge="1">
          <mxGeometry relative="1" as="geometry">
            <mxPoint x="868.13" y="233" as="sourcePoint" />
            <mxPoint x="832.13" y="227" as="targetPoint" />
          </mxGeometry>
        </mxCell>
        <mxCell id="Su-YMEVekgUXVJTX0emV-40" value="Batch" style="whiteSpace=wrap;html=1;align=center;" parent="1" vertex="1">
          <mxGeometry x="660" y="492" width="100" height="40" as="geometry" />
        </mxCell>
        <mxCell id="Su-YMEVekgUXVJTX0emV-41" value="&lt;b&gt;&lt;u&gt;Id&lt;/u&gt;&lt;/b&gt;" style="ellipse;whiteSpace=wrap;html=1;align=center;" parent="1" vertex="1">
          <mxGeometry x="630" y="557" width="70" height="40" as="geometry" />
        </mxCell>
        <mxCell id="Su-YMEVekgUXVJTX0emV-42" value="Name" style="ellipse;whiteSpace=wrap;html=1;align=center;" parent="1" vertex="1">
          <mxGeometry x="715" y="557" width="70" height="40" as="geometry" />
        </mxCell>
        <mxCell id="Su-YMEVekgUXVJTX0emV-43" value="Learners" style="ellipse;shape=doubleEllipse;margin=3;whiteSpace=wrap;html=1;align=center;" parent="1" vertex="1">
          <mxGeometry x="785" y="532" width="75" height="40" as="geometry" />
        </mxCell>
        <mxCell id="Su-YMEVekgUXVJTX0emV-44" value="" style="edgeStyle=entityRelationEdgeStyle;fontSize=12;html=1;endArrow=ERmany;startArrow=ERmany;rounded=0;entryX=0;entryY=0.5;entryDx=0;entryDy=0;exitX=1;exitY=0.25;exitDx=0;exitDy=0;" parent="1" source="Su-YMEVekgUXVJTX0emV-40" target="Su-YMEVekgUXVJTX0emV-3" edge="1">
          <mxGeometry width="100" height="100" relative="1" as="geometry">
            <mxPoint x="510" y="472" as="sourcePoint" />
            <mxPoint x="610" y="372" as="targetPoint" />
          </mxGeometry>
        </mxCell>
        <mxCell id="Su-YMEVekgUXVJTX0emV-45" value="" style="endArrow=none;html=1;rounded=0;exitX=0;exitY=0;exitDx=0;exitDy=0;entryX=1;entryY=0.75;entryDx=0;entryDy=0;" parent="1" source="Su-YMEVekgUXVJTX0emV-43" target="Su-YMEVekgUXVJTX0emV-40" edge="1">
          <mxGeometry relative="1" as="geometry">
            <mxPoint x="903" y="387" as="sourcePoint" />
            <mxPoint x="880" y="417" as="targetPoint" />
          </mxGeometry>
        </mxCell>
        <mxCell id="Su-YMEVekgUXVJTX0emV-46" value="" style="endArrow=none;html=1;rounded=0;exitX=1;exitY=0;exitDx=0;exitDy=0;entryX=0.75;entryY=1;entryDx=0;entryDy=0;" parent="1" source="Su-YMEVekgUXVJTX0emV-42" target="Su-YMEVekgUXVJTX0emV-40" edge="1">
          <mxGeometry relative="1" as="geometry">
            <mxPoint x="809" y="543" as="sourcePoint" />
            <mxPoint x="770" y="532" as="targetPoint" />
          </mxGeometry>
        </mxCell>
        <mxCell id="Su-YMEVekgUXVJTX0emV-47" value="" style="endArrow=none;html=1;rounded=0;exitX=1;exitY=0;exitDx=0;exitDy=0;entryX=0.25;entryY=1;entryDx=0;entryDy=0;" parent="1" source="Su-YMEVekgUXVJTX0emV-41" target="Su-YMEVekgUXVJTX0emV-40" edge="1">
          <mxGeometry relative="1" as="geometry">
            <mxPoint x="784" y="573" as="sourcePoint" />
            <mxPoint x="745" y="542" as="targetPoint" />
          </mxGeometry>
        </mxCell>
        <mxCell id="Su-YMEVekgUXVJTX0emV-48" value="Trainer ID" style="ellipse;whiteSpace=wrap;html=1;align=center;dashed=1;" parent="1" vertex="1">
          <mxGeometry x="560" y="547" width="70" height="40" as="geometry" />
        </mxCell>
        <mxCell id="Su-YMEVekgUXVJTX0emV-49" value="" style="endArrow=none;html=1;rounded=0;exitX=1;exitY=0;exitDx=0;exitDy=0;entryX=0;entryY=1;entryDx=0;entryDy=0;" parent="1" source="Su-YMEVekgUXVJTX0emV-48" target="Su-YMEVekgUXVJTX0emV-40" edge="1">
          <mxGeometry relative="1" as="geometry">
            <mxPoint x="699" y="573" as="sourcePoint" />
            <mxPoint x="695" y="542" as="targetPoint" />
          </mxGeometry>
        </mxCell>
        <mxCell id="Su-YMEVekgUXVJTX0emV-50" value="Subject" style="whiteSpace=wrap;html=1;align=center;" parent="1" vertex="1">
          <mxGeometry x="220" y="445" width="100" height="40" as="geometry" />
        </mxCell>
        <mxCell id="Su-YMEVekgUXVJTX0emV-52" value="&lt;b&gt;&lt;u&gt;Id&lt;/u&gt;&lt;/b&gt;" style="ellipse;whiteSpace=wrap;html=1;align=center;" parent="1" vertex="1">
          <mxGeometry x="170" y="375" width="70" height="40" as="geometry" />
        </mxCell>
        <mxCell id="Su-YMEVekgUXVJTX0emV-53" value="Name" style="ellipse;whiteSpace=wrap;html=1;align=center;" parent="1" vertex="1">
          <mxGeometry x="250" y="375" width="70" height="40" as="geometry" />
        </mxCell>
        <mxCell id="Su-YMEVekgUXVJTX0emV-54" value="Trainer ID" style="ellipse;whiteSpace=wrap;html=1;align=center;dashed=1;" parent="1" vertex="1">
          <mxGeometry x="140" y="430" width="70" height="40" as="geometry" />
        </mxCell>
        <mxCell id="Su-YMEVekgUXVJTX0emV-55" value="Topic IDs" style="ellipse;shape=doubleEllipse;margin=3;whiteSpace=wrap;html=1;align=center;" parent="1" vertex="1">
          <mxGeometry x="145" y="495" width="75" height="40" as="geometry" />
        </mxCell>
        <mxCell id="Su-YMEVekgUXVJTX0emV-56" value="Start Date" style="ellipse;whiteSpace=wrap;html=1;align=center;" parent="1" vertex="1">
          <mxGeometry x="715" y="432" width="70" height="40" as="geometry" />
        </mxCell>
        <mxCell id="Su-YMEVekgUXVJTX0emV-57" value="Duration" style="ellipse;whiteSpace=wrap;html=1;align=center;" parent="1" vertex="1">
          <mxGeometry x="639.78" y="432" width="70" height="40" as="geometry" />
        </mxCell>
        <mxCell id="Su-YMEVekgUXVJTX0emV-58" value="" style="endArrow=none;html=1;rounded=0;exitX=0.5;exitY=1;exitDx=0;exitDy=0;entryX=0.25;entryY=0;entryDx=0;entryDy=0;" parent="1" source="Su-YMEVekgUXVJTX0emV-57" target="Su-YMEVekgUXVJTX0emV-40" edge="1">
          <mxGeometry relative="1" as="geometry">
            <mxPoint x="629" y="563" as="sourcePoint" />
            <mxPoint x="670" y="542" as="targetPoint" />
          </mxGeometry>
        </mxCell>
        <mxCell id="Su-YMEVekgUXVJTX0emV-59" value="" style="endArrow=none;html=1;rounded=0;exitX=0.75;exitY=0;exitDx=0;exitDy=0;entryX=0.5;entryY=1;entryDx=0;entryDy=0;" parent="1" source="Su-YMEVekgUXVJTX0emV-40" target="Su-YMEVekgUXVJTX0emV-56" edge="1">
          <mxGeometry relative="1" as="geometry">
            <mxPoint x="639" y="573" as="sourcePoint" />
            <mxPoint x="680" y="552" as="targetPoint" />
          </mxGeometry>
        </mxCell>
        <mxCell id="Su-YMEVekgUXVJTX0emV-61" value="Subject ID" style="ellipse;whiteSpace=wrap;html=1;align=center;dashed=1;" parent="1" vertex="1">
          <mxGeometry x="810" y="487" width="70" height="40" as="geometry" />
        </mxCell>
        <mxCell id="Su-YMEVekgUXVJTX0emV-62" value="" style="endArrow=none;html=1;rounded=0;exitX=0;exitY=0.5;exitDx=0;exitDy=0;entryX=1;entryY=0.5;entryDx=0;entryDy=0;" parent="1" source="Su-YMEVekgUXVJTX0emV-61" target="Su-YMEVekgUXVJTX0emV-40" edge="1">
          <mxGeometry relative="1" as="geometry">
            <mxPoint x="630" y="487" as="sourcePoint" />
            <mxPoint x="670" y="502" as="targetPoint" />
          </mxGeometry>
        </mxCell>
        <mxCell id="Su-YMEVekgUXVJTX0emV-63" value="" style="endArrow=none;html=1;rounded=0;exitX=0.5;exitY=1;exitDx=0;exitDy=0;entryX=0.75;entryY=0;entryDx=0;entryDy=0;" parent="1" source="Su-YMEVekgUXVJTX0emV-53" target="Su-YMEVekgUXVJTX0emV-50" edge="1">
          <mxGeometry relative="1" as="geometry">
            <mxPoint x="520" y="435" as="sourcePoint" />
            <mxPoint x="560" y="450" as="targetPoint" />
          </mxGeometry>
        </mxCell>
        <mxCell id="Su-YMEVekgUXVJTX0emV-64" value="" style="endArrow=none;html=1;rounded=0;exitX=1;exitY=1;exitDx=0;exitDy=0;entryX=0.5;entryY=0;entryDx=0;entryDy=0;" parent="1" source="Su-YMEVekgUXVJTX0emV-52" target="Su-YMEVekgUXVJTX0emV-50" edge="1">
          <mxGeometry relative="1" as="geometry">
            <mxPoint x="295" y="425" as="sourcePoint" />
            <mxPoint x="305" y="455" as="targetPoint" />
          </mxGeometry>
        </mxCell>
        <mxCell id="Su-YMEVekgUXVJTX0emV-65" value="" style="endArrow=none;html=1;rounded=0;exitX=1;exitY=0.5;exitDx=0;exitDy=0;entryX=0;entryY=0.5;entryDx=0;entryDy=0;" parent="1" source="Su-YMEVekgUXVJTX0emV-54" target="Su-YMEVekgUXVJTX0emV-50" edge="1">
          <mxGeometry relative="1" as="geometry">
            <mxPoint x="239" y="419" as="sourcePoint" />
            <mxPoint x="280" y="455" as="targetPoint" />
          </mxGeometry>
        </mxCell>
        <mxCell id="Su-YMEVekgUXVJTX0emV-66" value="" style="endArrow=none;html=1;rounded=0;exitX=1;exitY=0;exitDx=0;exitDy=0;entryX=0.25;entryY=1;entryDx=0;entryDy=0;" parent="1" source="Su-YMEVekgUXVJTX0emV-55" target="Su-YMEVekgUXVJTX0emV-50" edge="1">
          <mxGeometry relative="1" as="geometry">
            <mxPoint x="220" y="460" as="sourcePoint" />
            <mxPoint x="230" y="475" as="targetPoint" />
          </mxGeometry>
        </mxCell>
        <mxCell id="Su-YMEVekgUXVJTX0emV-67" value="" style="edgeStyle=entityRelationEdgeStyle;fontSize=12;html=1;endArrow=ERoneToMany;rounded=0;exitX=1;exitY=0.5;exitDx=0;exitDy=0;entryX=0;entryY=0.75;entryDx=0;entryDy=0;" parent="1" source="Su-YMEVekgUXVJTX0emV-50" target="Su-YMEVekgUXVJTX0emV-40" edge="1">
          <mxGeometry width="100" height="100" relative="1" as="geometry">
            <mxPoint x="530" y="422" as="sourcePoint" />
            <mxPoint x="550" y="527" as="targetPoint" />
          </mxGeometry>
        </mxCell>
        <mxCell id="ZA2R68NSi6haRx9WB-m2-2" value="Topic" style="whiteSpace=wrap;html=1;align=center;" parent="1" vertex="1">
          <mxGeometry x="230" y="610" width="100" height="40" as="geometry" />
        </mxCell>
        <mxCell id="ZA2R68NSi6haRx9WB-m2-3" value="&lt;b&gt;&lt;u&gt;Id&lt;/u&gt;&lt;/b&gt;" style="ellipse;whiteSpace=wrap;html=1;align=center;" parent="1" vertex="1">
          <mxGeometry x="150" y="560" width="70" height="40" as="geometry" />
        </mxCell>
        <mxCell id="ZA2R68NSi6haRx9WB-m2-4" value="Name" style="ellipse;whiteSpace=wrap;html=1;align=center;" parent="1" vertex="1">
          <mxGeometry x="140" y="610" width="70" height="40" as="geometry" />
        </mxCell>
        <mxCell id="ZA2R68NSi6haRx9WB-m2-5" value="Video Links" style="ellipse;shape=doubleEllipse;margin=3;whiteSpace=wrap;html=1;align=center;" parent="1" vertex="1">
          <mxGeometry x="145" y="658" width="75" height="40" as="geometry" />
        </mxCell>
        <mxCell id="ZA2R68NSi6haRx9WB-m2-6" value="" style="endArrow=none;html=1;rounded=0;exitX=1;exitY=0.5;exitDx=0;exitDy=0;entryX=0.25;entryY=0;entryDx=0;entryDy=0;" parent="1" source="ZA2R68NSi6haRx9WB-m2-3" target="ZA2R68NSi6haRx9WB-m2-2" edge="1">
          <mxGeometry relative="1" as="geometry">
            <mxPoint x="295" y="425" as="sourcePoint" />
            <mxPoint x="305" y="455" as="targetPoint" />
          </mxGeometry>
        </mxCell>
        <mxCell id="ZA2R68NSi6haRx9WB-m2-7" value="" style="endArrow=none;html=1;rounded=0;exitX=1;exitY=0.5;exitDx=0;exitDy=0;entryX=0;entryY=0.5;entryDx=0;entryDy=0;" parent="1" source="ZA2R68NSi6haRx9WB-m2-4" target="ZA2R68NSi6haRx9WB-m2-2" edge="1">
          <mxGeometry relative="1" as="geometry">
            <mxPoint x="230" y="590" as="sourcePoint" />
            <mxPoint x="265" y="620" as="targetPoint" />
          </mxGeometry>
        </mxCell>
        <mxCell id="ZA2R68NSi6haRx9WB-m2-8" value="" style="endArrow=none;html=1;rounded=0;exitX=0.5;exitY=0;exitDx=0;exitDy=0;entryX=0.25;entryY=1;entryDx=0;entryDy=0;" parent="1" source="ZA2R68NSi6haRx9WB-m2-5" target="ZA2R68NSi6haRx9WB-m2-2" edge="1">
          <mxGeometry relative="1" as="geometry">
            <mxPoint x="211.21691119715683" y="675.6998666197328" as="sourcePoint" />
            <mxPoint x="240" y="640" as="targetPoint" />
          </mxGeometry>
        </mxCell>
        <mxCell id="ZA2R68NSi6haRx9WB-m2-9" value="Weightage" style="ellipse;whiteSpace=wrap;html=1;align=center;" parent="1" vertex="1">
          <mxGeometry x="245" y="678" width="70" height="40" as="geometry" />
        </mxCell>
        <mxCell id="ZA2R68NSi6haRx9WB-m2-10" value="Priority" style="ellipse;whiteSpace=wrap;html=1;align=center;" parent="1" vertex="1">
          <mxGeometry x="325" y="688" width="70" height="40" as="geometry" />
        </mxCell>
        <mxCell id="ZA2R68NSi6haRx9WB-m2-11" value="" style="endArrow=none;html=1;rounded=0;exitX=0.5;exitY=0;exitDx=0;exitDy=0;entryX=0.5;entryY=1;entryDx=0;entryDy=0;" parent="1" source="ZA2R68NSi6haRx9WB-m2-9" target="ZA2R68NSi6haRx9WB-m2-2" edge="1">
          <mxGeometry relative="1" as="geometry">
            <mxPoint x="275" y="670" as="sourcePoint" />
            <mxPoint x="265" y="660" as="targetPoint" />
          </mxGeometry>
        </mxCell>
        <mxCell id="ZA2R68NSi6haRx9WB-m2-12" value="" style="endArrow=none;html=1;rounded=0;exitX=0.5;exitY=0;exitDx=0;exitDy=0;entryX=0.75;entryY=1;entryDx=0;entryDy=0;" parent="1" source="ZA2R68NSi6haRx9WB-m2-10" target="ZA2R68NSi6haRx9WB-m2-2" edge="1">
          <mxGeometry relative="1" as="geometry">
            <mxPoint x="340.25126265847075" y="675.8578643762689" as="sourcePoint" />
            <mxPoint x="290" y="660" as="targetPoint" />
          </mxGeometry>
        </mxCell>
        <mxCell id="ZA2R68NSi6haRx9WB-m2-14" value="" style="edgeStyle=entityRelationEdgeStyle;fontSize=12;html=1;endArrow=ERoneToMany;rounded=0;exitX=1;exitY=0.75;exitDx=0;exitDy=0;" parent="1" source="Su-YMEVekgUXVJTX0emV-50" target="ZA2R68NSi6haRx9WB-m2-2" edge="1">
          <mxGeometry width="100" height="100" relative="1" as="geometry">
            <mxPoint x="330" y="475" as="sourcePoint" />
            <mxPoint x="500" y="475" as="targetPoint" />
          </mxGeometry>
        </mxCell>
        <mxCell id="QHEEn6cuKo9EkzluKdim-2" value="User Service" style="text;html=1;strokeColor=none;fillColor=none;align=center;verticalAlign=middle;whiteSpace=wrap;rounded=0;" parent="1" vertex="1">
          <mxGeometry x="400" y="112" width="80" height="30" as="geometry" />
        </mxCell>
        <mxCell id="I34lqknRAjShdTsjLINw-2" value="" style="edgeStyle=entityRelationEdgeStyle;fontSize=12;html=1;endArrow=ERoneToMany;rounded=0;exitX=0.5;exitY=1;exitDx=0;exitDy=0;entryX=0;entryY=0.25;entryDx=0;entryDy=0;" parent="1" source="Su-YMEVekgUXVJTX0emV-2" target="Su-YMEVekgUXVJTX0emV-40" edge="1">
          <mxGeometry width="100" height="100" relative="1" as="geometry">
            <mxPoint x="630" y="422" as="sourcePoint" />
            <mxPoint x="730" y="322" as="targetPoint" />
          </mxGeometry>
        </mxCell>
        <mxCell id="I34lqknRAjShdTsjLINw-4" value="Employee Service" style="text;html=1;strokeColor=none;fillColor=none;align=center;verticalAlign=middle;whiteSpace=wrap;rounded=0;" parent="1" vertex="1">
          <mxGeometry x="529.78" y="127" width="110" height="30" as="geometry" />
        </mxCell>
        <mxCell id="zx_b4zI5u3n16hg_3vCS-2" value="Batch Service" style="text;html=1;strokeColor=none;fillColor=none;align=center;verticalAlign=middle;whiteSpace=wrap;rounded=0;" vertex="1" parent="1">
          <mxGeometry x="535" y="412" width="85" height="30" as="geometry" />
        </mxCell>
        <mxCell id="zx_b4zI5u3n16hg_3vCS-4" value="Subject Service" style="text;html=1;strokeColor=none;fillColor=none;align=center;verticalAlign=middle;whiteSpace=wrap;rounded=0;" vertex="1" parent="1">
          <mxGeometry x="330" y="345" width="90" height="30" as="geometry" />
        </mxCell>
        <mxCell id="zx_b4zI5u3n16hg_3vCS-5" value="&lt;b&gt;&lt;u&gt;&lt;font style=&quot;font-size: 24px;&quot;&gt;E Learning&lt;/font&gt;&lt;/u&gt;&lt;/b&gt;" style="text;html=1;strokeColor=none;fillColor=none;align=center;verticalAlign=middle;whiteSpace=wrap;rounded=0;" vertex="1" parent="1">
          <mxGeometry x="970" width="130" height="50" as="geometry" />
        </mxCell>
        <mxCell id="zx_b4zI5u3n16hg_3vCS-6" value="" style="edgeStyle=entityRelationEdgeStyle;fontSize=12;html=1;endArrow=ERoneToMany;rounded=0;entryX=1;entryY=0.25;entryDx=0;entryDy=0;exitX=0;exitY=0.5;exitDx=0;exitDy=0;" edge="1" parent="1" source="Su-YMEVekgUXVJTX0emV-2" target="Su-YMEVekgUXVJTX0emV-50">
          <mxGeometry width="100" height="100" relative="1" as="geometry">
            <mxPoint x="410" y="450" as="sourcePoint" />
            <mxPoint x="510" y="350" as="targetPoint" />
          </mxGeometry>
        </mxCell>
      </root>
    </mxGraphModel>
  </diagram>
</mxfile>
